<svg width="20" height="20" viewBox="0 0 20 20" fill="none" xmlns="http://www.w3.org/2000/svg">
<g id="tabler-icon-filter-star">
<path id="Vector" d="M9.20158 16.9334L7.49992 17.5V10.4167L3.76659 6.31004C3.48779 6.00331 3.3333 5.60371 3.33325 5.18921V3.33337H16.6666V5.14337C16.6665 5.58537 16.4908 6.00922 16.1783 6.32171L12.4999 10M14.8334 17.3475L13.0234 18.2959C12.9697 18.3238 12.9093 18.3363 12.8489 18.3319C12.7885 18.3275 12.7305 18.3064 12.6814 18.271C12.6323 18.2355 12.5941 18.1871 12.5709 18.1312C12.5477 18.0753 12.5405 18.014 12.5501 17.9542L12.896 15.945L11.4318 14.5225C11.3881 14.4803 11.3571 14.4266 11.3425 14.3676C11.3278 14.3086 11.3301 14.2467 11.3489 14.1889C11.3678 14.1311 11.4025 14.0798 11.4491 14.0408C11.4958 14.0018 11.5524 13.9767 11.6126 13.9684L13.636 13.675L14.5409 11.8475C14.568 11.7931 14.6097 11.7473 14.6614 11.7153C14.7131 11.6833 14.7727 11.6663 14.8334 11.6663C14.8942 11.6663 14.9538 11.6833 15.0055 11.7153C15.0572 11.7473 15.0989 11.7931 15.1259 11.8475L16.0309 13.675L18.0543 13.9684C18.1143 13.977 18.1707 14.0023 18.2172 14.0413C18.2636 14.0803 18.2982 14.1316 18.317 14.1892C18.3358 14.2469 18.3381 14.3087 18.3236 14.3676C18.3092 14.4265 18.2785 14.4801 18.2351 14.5225L16.7709 15.945L17.1159 17.9534C17.1263 18.0132 17.1197 18.0748 17.0968 18.1311C17.0739 18.1874 17.0357 18.2362 16.9864 18.2719C16.9372 18.3075 16.879 18.3287 16.8184 18.3329C16.7577 18.3372 16.6971 18.3243 16.6434 18.2959L14.8334 17.3475Z" stroke="#4D5761" stroke-width="1.5" stroke-linecap="round" stroke-linejoin="round"/>
</g>
</svg>
